# xmcd
#
# Track frame offsets:
#	150
#	12140
#	30577
#
# Disc length: 630 seconds
#
# Revision: 2
# Processed by: cddbd v1.5.2PL0 Copyright (c) Steve Scherf et al.
# Submitted via: EasyCDDAExtractor 10.0.2.1
#
DISCID=15027403
DTITLE=Lauri Tähkä and Elonkerjuu - Hetkeksi En Sulle Rupia cds
DYEAR=2007
DGENRE=SuomiRock
TTITLE0=Hetkeksi En Sulle Rupia
TTITLE1=Nuaren Lika Elämä (Live at YleX Pop 2.6.2007)
TTITLE2=Hyvästi (Live at YleX Pop 2.6.2007)
EXTD=
EXTT0=
EXTT1=
EXTT2=
PLAYORDER=
